<svg width="914" height="400" fill="none" xmlns="http://www.w3.org/2000/svg"><style>#CL0 {fill: #333;}#CL1 {fill: #999;}@media (prefers-color-scheme: dark) {#CL0 {fill: #CCC;}#CL1 {fill: #666;}}</style><path d="M366.198 186.283v3.418h-8.791v4.895h10.254V198h-14.164v-19.523h14.164v3.418h-10.254v4.388h8.791Zm14.67-6.344c1.495 1.058 2.306 2.521 2.434 4.389h-3.678c-.118-.829-.524-1.486-1.217-1.969-.674-.437-1.499-.656-2.474-.656-.811 0-1.518.16-2.119.479-.784.41-1.181.998-1.19 1.763 0 1.039.975 1.787 2.926 2.243 3.254.783 5.049 1.257 5.387 1.421 1.987.875 2.98 2.338 2.98 4.389 0 .647-.082 1.249-.246 1.805a4.532 4.532 0 0 1-.629 1.34c-.638.893-1.536 1.617-2.693 2.173a8.275 8.275 0 0 1-3.363.684c-4.394-.036-7.01-1.436-7.848-4.197a5.824 5.824 0 0 1-.328-1.641h3.719c.091.647.364 1.194.82 1.641.118.127.264.25.437.369.684.483 1.582.724 2.694.724.984 0 1.845-.209 2.584-.628.237-.128.437-.283.601-.465.31-.356.465-.78.465-1.272.037-1.075-.907-1.845-2.83-2.31-3.181-.766-4.967-1.249-5.359-1.45-1.924-.92-2.876-2.456-2.858-4.607.018-1.121.301-2.115.848-2.98.556-.857 1.404-1.523 2.543-1.996a8.477 8.477 0 0 1 3.459-.711c1.969 0 3.614.487 4.935 1.462Zm16.12 0c1.495 1.058 2.306 2.521 2.434 4.389h-3.678a2.79 2.79 0 0 0-1.217-1.969c-.674-.437-1.499-.656-2.475-.656-.811 0-1.517.16-2.119.479-.783.41-1.18.998-1.189 1.763 0 1.039.975 1.787 2.926 2.243 3.254.783 5.049 1.257 5.386 1.421 1.987.875 2.981 2.338 2.981 4.389 0 .647-.082 1.249-.246 1.805a4.557 4.557 0 0 1-.629 1.34c-.638.893-1.536 1.617-2.693 2.173a8.283 8.283 0 0 1-3.364.684c-4.393-.036-7.009-1.436-7.847-4.197a5.824 5.824 0 0 1-.329-1.641h3.719c.091.647.365 1.194.821 1.641.118.127.264.25.437.369.684.483 1.581.724 2.693.724.985 0 1.846-.209 2.584-.628.237-.128.438-.283.602-.465.31-.356.465-.78.465-1.272.036-1.075-.907-1.845-2.83-2.31-3.181-.766-4.968-1.249-5.36-1.45-1.923-.92-2.875-2.456-2.857-4.607.018-1.121.301-2.115.848-2.98.556-.857 1.403-1.523 2.543-1.996a8.476 8.476 0 0 1 3.458-.711c1.969 0 3.614.487 4.936 1.462Zm30.434-1.462V198h-3.896v-12.688l-8.299 12.674V198h-14.164v-3.418h10.254v-4.389h-8.778v-3.418h8.778v-4.894h-10.254v-3.404h14.164v12.673l8.299-12.673h3.896Zm16.844 3.418h-5.851V198h-3.897v-16.105h-5.851v-3.418h15.599v3.418ZM449.257 198h-3.924v-19.523h3.924V198Zm10.186-15.135L454.535 198h-4.293l6.904-19.523h4.772L468.795 198h-4.484l-4.813-15.135h-.055Zm14.37-4.388v16.105h8.791V198h-12.687v-19.523h3.896Zm28.63 0h3.897V198h-3.897v-7.15l-7.164 7.15h-5.018l9.721-9.762-9.721-9.761h4.676l7.506 7.519v-7.519Zm13.96 4.388L511.494 198h-4.293l6.905-19.523h4.771L525.754 198h-4.484l-4.813-15.135h-.054Zm29.19 5.373c0 2.716-.962 5.027-2.885 6.932-1.869 1.887-4.152 2.83-6.85 2.83h-.287c-2.579-.064-4.785-1.007-6.617-2.83-1.923-1.905-2.885-4.216-2.885-6.932 0-2.679.962-4.981 2.885-6.904 1.832-1.841 4.038-2.789 6.617-2.844.091-.009.187-.013.287-.013 2.698 0 4.981.952 6.85 2.857 1.923 1.923 2.885 4.225 2.885 6.904Zm13.276-8.299c1.494 1.058 2.306 2.521 2.433 4.389h-3.678c-.118-.829-.524-1.486-1.216-1.969-.675-.437-1.5-.656-2.475-.656-.811 0-1.518.16-2.119.479-.784.41-1.181.998-1.19 1.763 0 1.039.976 1.787 2.926 2.243 3.254.783 5.05 1.257 5.387 1.421 1.987.875 2.98 2.338 2.98 4.389 0 .647-.082 1.249-.246 1.805a4.532 4.532 0 0 1-.629 1.34c-.638.893-1.535 1.617-2.693 2.173a8.275 8.275 0 0 1-3.363.684c-4.394-.036-7.009-1.436-7.848-4.197a5.824 5.824 0 0 1-.328-1.641h3.719c.091.647.364 1.194.82 1.641.118.127.264.25.437.369.684.483 1.582.724 2.694.724.984 0 1.846-.209 2.584-.628.237-.128.437-.283.601-.465.31-.356.465-.78.465-1.272.037-1.075-.907-1.845-2.83-2.31-3.181-.766-4.967-1.249-5.359-1.45-1.923-.92-2.876-2.456-2.858-4.607.019-1.121.301-2.115.848-2.98.556-.857 1.404-1.523 2.543-1.996a8.48 8.48 0 0 1 3.459-.711c1.969 0 3.614.487 4.936 1.462Z" id="CL0"/><path d="M355.408 218.369V223h-1.436v-12.253h3.367c1.31 0 2.324.319 3.042.957.723.638 1.085 1.538 1.085 2.7 0 1.162-.402 2.113-1.205 2.854-.797.74-1.877 1.111-3.238 1.111h-1.615Zm0-6.324v5.025h1.504c.991 0 1.746-.225 2.264-.675.524-.456.786-1.097.786-1.923 0-1.618-.957-2.427-2.871-2.427h-1.683ZM370.371 223h-1.401v-1.384h-.034c-.581 1.059-1.481 1.589-2.7 1.589-2.085 0-3.128-1.242-3.128-3.726v-5.229h1.393v5.007c0 1.846.706 2.769 2.119 2.769.684 0 1.245-.251 1.684-.752.444-.507.666-1.168.666-1.982v-5.042h1.401V223Zm3.975-1.265h-.034V223h-1.401v-12.954h1.401v5.742h.034c.69-1.162 1.698-1.743 3.025-1.743 1.122 0 2 .393 2.632 1.179.638.781.957 1.829.957 3.145 0 1.464-.356 2.637-1.068 3.52-.712.877-1.686 1.316-2.922 1.316-1.157 0-2.031-.49-2.624-1.47Zm-.034-3.529v1.222c0 .724.234 1.339.701 1.846.473.501 1.071.752 1.794.752.849 0 1.513-.325 1.991-.974.484-.65.727-1.553.727-2.709 0-.974-.225-1.737-.675-2.29-.451-.553-1.06-.829-1.829-.829-.815 0-1.47.285-1.965.855-.496.564-.744 1.273-.744 2.127Zm9.991 4.794h-1.402v-12.954h1.402V223Zm3.257-10.972a.888.888 0 0 1-.641-.256.863.863 0 0 1-.265-.649c0-.262.088-.479.265-.65a.876.876 0 0 1 .641-.265c.256 0 .473.089.649.265a.851.851 0 0 1 .274.65c0 .25-.091.464-.274.64a.88.88 0 0 1-.649.265Zm.684 10.972h-1.402v-8.75h1.402V223Zm8.503-.402c-.672.405-1.469.607-2.392.607-1.248 0-2.256-.404-3.025-1.213-.764-.815-1.145-1.869-1.145-3.162 0-1.441.413-2.598 1.239-3.469.826-.877 1.928-1.316 3.307-1.316.769 0 1.447.142 2.033.427v1.436c-.649-.456-1.344-.684-2.085-.684-.894 0-1.629.322-2.204.966-.57.638-.855 1.478-.855 2.52 0 1.026.268 1.835.804 2.427.541.593 1.264.889 2.17.889.763 0 1.481-.254 2.153-.761v1.333Zm14.479-11.851-4.042 7.724V223h-1.436v-4.495l-3.939-7.758h1.632l2.743 5.537c.034.068.134.319.299.752h.026c.057-.194.165-.445.324-.752l2.872-5.537h1.521Zm10.375 7.297c0 3.441-1.553 5.161-4.657 5.161-2.974 0-4.461-1.655-4.461-4.965v-7.493h1.436v7.399c0 2.513 1.059 3.769 3.178 3.769 2.046 0 3.068-1.214 3.068-3.64v-7.528h1.436v7.297ZM436.863 223h-1.427v-8.22c0-.65.04-1.444.12-2.384h-.034c-.137.552-.259.948-.368 1.187L430.967 223h-.7l-4.179-9.348c-.119-.274-.242-.692-.367-1.256h-.034c.045.49.068 1.29.068 2.401V223h-1.384v-12.253h1.897l3.76 8.545c.29.655.478 1.145.563 1.469h.052c.245-.672.441-1.173.589-1.504l3.837-8.51h1.794V223Zm8.274-12.253-5.879 14.287h-1.308l5.862-14.287h1.325Zm1.18 12.253v-12.253h3.384c4.318 0 6.477 1.991 6.477 5.972 0 1.892-.601 3.413-1.803 4.563-1.196 1.145-2.8 1.718-4.811 1.718h-3.247Zm1.436-10.955v9.656h1.828c1.607 0 2.857-.43 3.752-1.29.894-.86 1.341-2.079 1.341-3.657 0-3.139-1.669-4.709-5.007-4.709h-1.914ZM468.168 223h-1.76l-6.306-9.767a4.014 4.014 0 0 1-.393-.769h-.052c.046.262.069.823.069 1.683V223h-1.436v-12.253h1.863l6.135 9.613c.257.398.422.672.496.82h.034c-.057-.353-.085-.954-.085-1.803v-8.63h1.435V223Zm9.136-10.955h-4.785v4.239h4.426v1.29h-4.426V223h-1.435v-12.253h6.22v1.298ZM492.62 223h-1.709l-2.051-3.435a7.067 7.067 0 0 0-.547-.812 2.943 2.943 0 0 0-.547-.555 1.747 1.747 0 0 0-.598-.308 2.329 2.329 0 0 0-.717-.102h-1.18V223h-1.435v-12.253h3.657c.535 0 1.028.068 1.478.205.456.131.849.333 1.179.606.337.274.599.616.787 1.026.188.404.282.88.282 1.427 0 .427-.066.82-.197 1.179a2.967 2.967 0 0 1-.547.948c-.233.28-.518.519-.854.718a4.377 4.377 0 0 1-1.12.453v.034c.205.091.382.197.53.316.154.114.299.251.436.411.137.159.27.341.401.546.137.2.288.433.453.701L492.62 223Zm-7.349-10.955v4.444h1.949c.358 0 .689-.054.991-.163.307-.108.572-.262.794-.461.223-.205.396-.453.522-.743.125-.297.188-.627.188-.992 0-.655-.214-1.165-.641-1.529-.422-.37-1.034-.556-1.837-.556h-1.966Zm15.075 6.93h-6.178c.023.974.285 1.726.786 2.256.502.53 1.191.795 2.068.795.986 0 1.891-.325 2.717-.974v1.316c-.769.558-1.785.837-3.05.837-1.236 0-2.208-.396-2.914-1.188-.706-.797-1.059-1.917-1.059-3.358 0-1.361.384-2.469 1.153-3.324.775-.86 1.735-1.29 2.88-1.29 1.145 0 2.031.37 2.657 1.111.627.74.94 1.769.94 3.084v.735Zm-1.435-1.187c-.006-.809-.203-1.439-.59-1.889-.382-.45-.914-.675-1.598-.675-.661 0-1.222.237-1.683.709-.462.473-.747 1.091-.855 1.855h4.726Zm4.701 3.947h-.034v5.29h-1.402V214.25h1.402v1.538h.034c.689-1.162 1.697-1.743 3.025-1.743 1.128 0 2.008.393 2.64 1.179.632.781.949 1.829.949 3.145 0 1.464-.356 2.637-1.068 3.52-.713.877-1.687 1.316-2.923 1.316-1.133 0-2.008-.49-2.623-1.47Zm-.034-3.529v1.222c0 .724.233 1.339.7 1.846.473.501 1.071.752 1.795.752.849 0 1.512-.325 1.991-.974.484-.65.726-1.553.726-2.709 0-.974-.225-1.737-.675-2.29-.45-.553-1.06-.829-1.829-.829-.814 0-1.469.285-1.965.855-.495.564-.743 1.273-.743 2.127Zm12.246 4.999c-1.293 0-2.327-.407-3.102-1.222-.769-.82-1.153-1.905-1.153-3.255 0-1.47.401-2.618 1.205-3.444.803-.826 1.888-1.239 3.255-1.239 1.305 0 2.322.402 3.051 1.205.735.803 1.102 1.917 1.102 3.341 0 1.395-.396 2.515-1.188 3.358-.786.837-1.843 1.256-3.17 1.256Zm.103-7.981c-.9 0-1.612.308-2.137.923-.524.61-.786 1.453-.786 2.529 0 1.037.265 1.855.795 2.453.53.598 1.239.897 2.128.897.905 0 1.6-.293 2.085-.88.49-.587.734-1.422.734-2.504 0-1.094-.244-1.937-.734-2.529-.485-.593-1.18-.889-2.085-.889Zm5.667 7.46v-1.504c.763.564 1.603.846 2.52.846 1.231 0 1.846-.41 1.846-1.231 0-.233-.054-.43-.162-.589a1.476 1.476 0 0 0-.428-.436 2.99 2.99 0 0 0-.632-.333 21.745 21.745 0 0 0-.778-.316 11.24 11.24 0 0 1-1.025-.462 3.387 3.387 0 0 1-.735-.53 2.1 2.1 0 0 1-.444-.675 2.43 2.43 0 0 1-.145-.88c0-.41.094-.772.282-1.085a2.44 2.44 0 0 1 .752-.795 3.476 3.476 0 0 1 1.068-.487 4.81 4.81 0 0 1 1.247-.162c.758 0 1.436.131 2.034.393v1.418c-.644-.421-1.384-.632-2.222-.632-.262 0-.498.031-.709.094-.211.057-.393.14-.547.248a1.203 1.203 0 0 0-.35.393c-.08.148-.12.313-.12.496 0 .227.04.418.12.572a1.3 1.3 0 0 0 .367.41c.16.12.353.228.581.325.228.097.487.202.778.316.387.148.735.302 1.042.462.308.153.57.33.786.529.217.194.382.419.496.675.12.257.18.562.18.915 0 .433-.097.809-.291 1.128a2.4 2.4 0 0 1-.76.794 3.488 3.488 0 0 1-1.103.47 5.416 5.416 0 0 1-1.307.154c-.9 0-1.681-.174-2.341-.521Zm8.384-10.656a.886.886 0 0 1-.641-.256.863.863 0 0 1-.265-.649c0-.262.088-.479.265-.65a.874.874 0 0 1 .641-.265c.256 0 .472.089.649.265a.855.855 0 0 1 .274.65.86.86 0 0 1-.274.64.882.882 0 0 1-.649.265Zm.683 10.972h-1.401v-8.75h1.401V223Zm6.599-.085c-.331.182-.767.273-1.308.273-1.532 0-2.298-.855-2.298-2.563v-5.179h-1.504v-1.196h1.504v-2.136l1.401-.453v2.589h2.205v1.196h-2.205v4.931c0 .586.1 1.005.299 1.256.199.25.53.376.991.376.353 0 .658-.097.915-.291v1.197Zm5.231.29c-1.294 0-2.327-.407-3.102-1.222-.769-.82-1.154-1.905-1.154-3.255 0-1.47.402-2.618 1.205-3.444.803-.826 1.888-1.239 3.256-1.239 1.304 0 2.321.402 3.05 1.205.735.803 1.102 1.917 1.102 3.341 0 1.395-.395 2.515-1.187 3.358-.786.837-1.843 1.256-3.17 1.256Zm.102-7.981c-.9 0-1.612.308-2.136.923-.524.61-.786 1.453-.786 2.529 0 1.037.265 1.855.794 2.453.53.598 1.239.897 2.128.897.906 0 1.601-.293 2.085-.88.49-.587.735-1.422.735-2.504 0-1.094-.245-1.937-.735-2.529-.484-.593-1.179-.889-2.085-.889Zm10.76.444c-.245-.188-.598-.282-1.06-.282-.598 0-1.099.282-1.504.846-.398.564-.598 1.333-.598 2.308V223h-1.401v-8.75h1.401v1.803h.034c.2-.615.504-1.094.915-1.436.41-.347.868-.521 1.375-.521.365 0 .644.04.838.12v1.452Zm8.187-1.418-4.024 10.151c-.718 1.812-1.726 2.718-3.025 2.718-.365 0-.67-.037-.915-.111v-1.257c.302.103.579.154.829.154.707 0 1.236-.421 1.59-1.264l.7-1.658-3.418-8.733h1.556l2.367 6.733c.028.086.088.308.179.667h.051a10.8 10.8 0 0 1 .171-.65l2.487-6.75h1.452Z" id="CL1"/></svg>