<svg width="914" height="400" fill="none" xmlns="http://www.w3.org/2000/svg"><path fill="#fff" d="M0 0h914v400H0z"/><path d="M366.198 186.283v3.418h-8.791v4.895h10.254V198h-14.164v-19.523h14.164v3.418h-10.254v4.388h8.791Zm14.67-6.344c1.495 1.058 2.306 2.521 2.434 4.389h-3.678c-.118-.829-.524-1.486-1.217-1.969-.674-.437-1.499-.656-2.474-.656-.811 0-1.518.16-2.119.479-.784.41-1.181.998-1.19 1.763 0 1.039.975 1.787 2.926 2.243 3.254.783 5.049 1.257 5.387 1.421 1.987.875 2.98 2.338 2.98 4.389 0 .647-.082 1.249-.246 1.805a4.532 4.532 0 0 1-.629 1.34c-.638.893-1.536 1.617-2.693 2.173a8.275 8.275 0 0 1-3.363.684c-4.394-.036-7.01-1.436-7.848-4.197a5.824 5.824 0 0 1-.328-1.641h3.719c.091.647.364 1.194.82 1.641.118.127.264.25.437.369.684.483 1.582.724 2.694.724.984 0 1.845-.209 2.584-.628.237-.128.437-.283.601-.465.31-.356.465-.78.465-1.272.037-1.075-.907-1.845-2.83-2.31-3.181-.766-4.967-1.249-5.359-1.45-1.924-.92-2.876-2.456-2.858-4.607.018-1.121.301-2.115.848-2.98.556-.857 1.404-1.523 2.543-1.996a8.477 8.477 0 0 1 3.459-.711c1.969 0 3.614.487 4.935 1.462Zm16.12 0c1.495 1.058 2.306 2.521 2.434 4.389h-3.678a2.79 2.79 0 0 0-1.217-1.969c-.674-.437-1.499-.656-2.475-.656-.811 0-1.517.16-2.119.479-.783.41-1.18.998-1.189 1.763 0 1.039.975 1.787 2.926 2.243 3.254.783 5.049 1.257 5.386 1.421 1.987.875 2.981 2.338 2.981 4.389 0 .647-.082 1.249-.246 1.805a4.557 4.557 0 0 1-.629 1.34c-.638.893-1.536 1.617-2.693 2.173a8.283 8.283 0 0 1-3.364.684c-4.393-.036-7.009-1.436-7.847-4.197a5.824 5.824 0 0 1-.329-1.641h3.719c.091.647.365 1.194.821 1.641.118.127.264.25.437.369.684.483 1.581.724 2.693.724.985 0 1.846-.209 2.584-.628.237-.128.438-.283.602-.465.31-.356.465-.78.465-1.272.036-1.075-.907-1.845-2.83-2.31-3.181-.766-4.968-1.249-5.36-1.45-1.923-.92-2.875-2.456-2.857-4.607.018-1.121.301-2.115.848-2.98.556-.857 1.403-1.523 2.543-1.996a8.476 8.476 0 0 1 3.458-.711c1.969 0 3.614.487 4.936 1.462Zm30.434-1.462V198h-3.896v-12.688l-8.299 12.674V198h-14.164v-3.418h10.254v-4.389h-8.778v-3.418h8.778v-4.894h-10.254v-3.404h14.164v12.673l8.299-12.673h3.896Zm16.844 3.418h-5.851V198h-3.897v-16.105h-5.851v-3.418h15.599v3.418ZM449.257 198h-3.924v-19.523h3.924V198Zm10.186-15.135L454.535 198h-4.293l6.904-19.523h4.772L468.795 198h-4.484l-4.813-15.135h-.055Zm14.37-4.388v16.105h8.791V198h-12.687v-19.523h3.896Zm28.63 0h3.897V198h-3.897v-7.15l-7.164 7.15h-5.018l9.721-9.762-9.721-9.761h4.676l7.506 7.519v-7.519Zm13.96 4.388L511.494 198h-4.293l6.905-19.523h4.771L525.754 198h-4.484l-4.813-15.135h-.054Zm29.19 5.373c0 2.716-.962 5.027-2.885 6.932-1.869 1.887-4.152 2.83-6.85 2.83h-.287c-2.579-.064-4.785-1.007-6.617-2.83-1.923-1.905-2.885-4.216-2.885-6.932 0-2.679.962-4.981 2.885-6.904 1.832-1.841 4.038-2.789 6.617-2.844.091-.009.187-.013.287-.013 2.698 0 4.981.952 6.85 2.857 1.923 1.923 2.885 4.225 2.885 6.904Zm13.276-8.299c1.494 1.058 2.306 2.521 2.433 4.389h-3.678c-.118-.829-.524-1.486-1.216-1.969-.675-.437-1.5-.656-2.475-.656-.811 0-1.518.16-2.119.479-.784.41-1.181.998-1.19 1.763 0 1.039.976 1.787 2.926 2.243 3.254.783 5.05 1.257 5.387 1.421 1.987.875 2.98 2.338 2.98 4.389 0 .647-.082 1.249-.246 1.805a4.532 4.532 0 0 1-.629 1.34c-.638.893-1.535 1.617-2.693 2.173a8.275 8.275 0 0 1-3.363.684c-4.394-.036-7.009-1.436-7.848-4.197a5.824 5.824 0 0 1-.328-1.641h3.719c.091.647.364 1.194.82 1.641.118.127.264.25.437.369.684.483 1.582.724 2.694.724.984 0 1.846-.209 2.584-.628.237-.128.437-.283.601-.465.31-.356.465-.78.465-1.272.037-1.075-.907-1.845-2.83-2.31-3.181-.766-4.967-1.249-5.359-1.45-1.923-.92-2.876-2.456-2.858-4.607.019-1.121.301-2.115.848-2.98.556-.857 1.404-1.523 2.543-1.996a8.48 8.48 0 0 1 3.459-.711c1.969 0 3.614.487 4.936 1.462Zm-204.542 38.403V223h-1.444v-12.323h3.386c1.318 0 2.338.32 3.06.962.727.642 1.091 1.547 1.091 2.716 0 1.168-.404 2.125-1.212 2.87-.802.745-1.887 1.117-3.257 1.117h-1.624Zm0-6.359v5.053h1.513c.996 0 1.756-.226 2.277-.679.527-.458.791-1.103.791-1.934 0-1.627-.963-2.44-2.888-2.44h-1.693ZM369.376 223h-1.409v-1.392h-.034c-.585 1.065-1.49 1.598-2.716 1.598-2.097 0-3.145-1.249-3.145-3.747V214.2h1.4v5.036c0 1.856.711 2.784 2.132 2.784.687 0 1.252-.252 1.693-.756.447-.51.67-1.174.67-1.994v-5.07h1.409v8.8Zm3.998-1.272h-.034V223h-1.41v-13.028h1.41v5.775h.034c.693-1.169 1.707-1.753 3.042-1.753 1.129 0 2.011.395 2.647 1.186.642.785.963 1.839.963 3.162 0 1.473-.358 2.653-1.075 3.541-.716.882-1.695 1.323-2.939 1.323-1.163 0-2.042-.492-2.638-1.478Zm-.034-3.549v1.229c0 .727.235 1.346.704 1.856.476.504 1.077.756 1.805.756.854 0 1.521-.326 2.002-.979.487-.654.731-1.562.731-2.725 0-.979-.226-1.747-.679-2.303-.453-.555-1.066-.833-1.839-.833-.819 0-1.478.286-1.977.859-.498.567-.747 1.281-.747 2.14ZM383.387 223h-1.409v-13.028h1.409V223Zm3.276-11.034a.89.89 0 0 1-.644-.258.87.87 0 0 1-.267-.653c0-.264.089-.482.267-.653a.875.875 0 0 1 .644-.267c.258 0 .476.089.653.267a.852.852 0 0 1 .275.653.86.86 0 0 1-.275.644.886.886 0 0 1-.653.267Zm.688 11.034h-1.41v-8.8h1.41v8.8Zm8.552-.404c-.676.407-1.478.61-2.406.61-1.255 0-2.269-.407-3.042-1.22-.768-.819-1.152-1.879-1.152-3.18 0-1.449.415-2.612 1.246-3.489.831-.882 1.939-1.323 3.326-1.323.773 0 1.455.143 2.045.429v1.444c-.653-.458-1.352-.687-2.097-.687-.899 0-1.638.323-2.217.971-.573.641-.859 1.486-.859 2.535 0 1.031.269 1.845.808 2.441.544.595 1.271.893 2.182.893.768 0 1.49-.255 2.166-.765v1.341Zm14.561-11.919-4.065 7.768V223h-1.444v-4.52l-3.961-7.803h1.641l2.759 5.568c.034.069.134.321.3.757h.026c.058-.195.166-.447.327-.757l2.887-5.568h1.53Zm10.434 7.339c0 3.46-1.561 5.19-4.683 5.19-2.991 0-4.486-1.664-4.486-4.993v-7.536h1.444v7.442c0 2.526 1.065 3.79 3.196 3.79 2.057 0 3.086-1.221 3.086-3.661v-7.571h1.443v7.339Zm15.35 4.984h-1.435v-8.267c0-.653.04-1.453.121-2.398h-.035c-.137.556-.261.954-.369 1.195l-4.211 9.47h-.705l-4.202-9.402c-.121-.275-.244-.696-.37-1.263h-.034c.046.493.069 1.298.069 2.415V223h-1.393v-12.323h1.908l3.781 8.593c.293.659.482 1.152.568 1.478h.051c.246-.676.444-1.18.593-1.512l3.859-8.559h1.804V223Zm8.321-12.323-5.913 14.368h-1.315l5.896-14.368h1.332ZM445.756 223v-12.323h3.403c4.343 0 6.514 2.002 6.514 6.007 0 1.902-.604 3.431-1.813 4.589-1.203 1.151-2.816 1.727-4.838 1.727h-3.266Zm1.444-11.017v9.711h1.839c1.616 0 2.873-.433 3.773-1.298.899-.865 1.349-2.091 1.349-3.678 0-3.157-1.679-4.735-5.036-4.735H447.2ZM467.732 223h-1.77l-6.342-9.823a4.06 4.06 0 0 1-.396-.773h-.051c.045.263.068.828.068 1.693V223h-1.443v-12.323h1.873l6.17 9.668c.258.401.424.676.499.825h.034c-.057-.356-.086-.96-.086-1.814v-8.679h1.444V223Zm9.188-11.017h-4.812v4.262h4.451v1.298h-4.451V223h-1.444v-12.323h6.256v1.306ZM492.324 223h-1.719l-2.063-3.455a7.048 7.048 0 0 0-.55-.816 3.013 3.013 0 0 0-.55-.559 1.772 1.772 0 0 0-.601-.309 2.33 2.33 0 0 0-.722-.103h-1.186V223h-1.444v-12.323h3.678c.539 0 1.034.068 1.487.206a3.24 3.24 0 0 1 1.186.61c.338.275.601.619.791 1.031.189.407.283.885.283 1.435 0 .43-.066.825-.198 1.186a2.974 2.974 0 0 1-.55.954 3.279 3.279 0 0 1-.859.722 4.395 4.395 0 0 1-1.126.456v.034c.207.092.384.198.533.318.155.114.301.252.438.412.138.161.273.344.404.55.138.201.29.436.456.705l2.312 3.704Zm-7.391-11.017v4.469h1.959c.361 0 .693-.055.997-.164a2.33 2.33 0 0 0 .799-.464c.224-.206.399-.455.525-.747.126-.298.189-.631.189-.997 0-.659-.215-1.172-.645-1.539-.424-.372-1.04-.558-1.848-.558h-1.976Zm15.161 6.969h-6.213c.022.98.286 1.736.79 2.269.504.533 1.198.799 2.08.799.991 0 1.902-.326 2.733-.979v1.323c-.774.562-1.796.842-3.068.842-1.244 0-2.22-.398-2.931-1.194-.71-.802-1.065-1.928-1.065-3.378 0-1.369.386-2.483 1.16-3.343.779-.865 1.744-1.297 2.896-1.297 1.151 0 2.042.372 2.673 1.117.63.745.945 1.779.945 3.102v.739Zm-1.444-1.194c-.006-.814-.203-1.447-.593-1.899-.384-.453-.919-.679-1.607-.679-.665 0-1.229.237-1.693.713-.464.475-.75 1.097-.859 1.865h4.752Zm4.728 3.97h-.034v5.32h-1.41V214.2h1.41v1.547h.034c.693-1.169 1.708-1.753 3.042-1.753 1.135 0 2.02.395 2.656 1.186.636.785.954 1.839.954 3.162 0 1.473-.358 2.653-1.074 3.541-.717.882-1.696 1.323-2.94 1.323-1.14 0-2.019-.492-2.638-1.478Zm-.034-3.549v1.229c0 .727.235 1.346.705 1.856.475.504 1.077.756 1.804.756.854 0 1.521-.326 2.003-.979.487-.654.73-1.562.73-2.725 0-.979-.226-1.747-.679-2.303-.452-.555-1.066-.833-1.839-.833-.819 0-1.478.286-1.977.859-.498.567-.747 1.281-.747 2.14Zm12.316 5.027c-1.3 0-2.34-.409-3.119-1.229-.774-.825-1.16-1.916-1.16-3.274 0-1.478.403-2.632 1.211-3.463s1.9-1.246 3.275-1.246c1.311 0 2.334.404 3.067 1.211.74.808 1.109 1.928 1.109 3.361 0 1.403-.398 2.529-1.194 3.377-.791.842-1.854 1.263-3.189 1.263Zm.103-8.026c-.905 0-1.621.309-2.148.928-.527.613-.791 1.461-.791 2.544 0 1.042.267 1.864.8 2.466.532.602 1.246.902 2.139.902.911 0 1.61-.295 2.097-.885.493-.59.739-1.429.739-2.518 0-1.1-.246-1.948-.739-2.544-.487-.595-1.186-.893-2.097-.893Zm5.7 7.502v-1.512c.767.567 1.612.85 2.535.85 1.237 0 1.856-.412 1.856-1.237a1.03 1.03 0 0 0-.163-.593 1.49 1.49 0 0 0-.43-.438 3.055 3.055 0 0 0-.636-.336c-.24-.103-.501-.209-.782-.318a11.11 11.11 0 0 1-1.031-.464 3.406 3.406 0 0 1-.739-.532 2.12 2.12 0 0 1-.447-.679 2.459 2.459 0 0 1-.146-.886c0-.412.094-.776.283-1.091.189-.321.442-.587.757-.799a3.468 3.468 0 0 1 1.074-.49 4.828 4.828 0 0 1 1.255-.163c.762 0 1.443.132 2.045.395v1.427c-.648-.424-1.392-.636-2.234-.636-.264 0-.502.031-.714.094a1.77 1.77 0 0 0-.55.249 1.22 1.22 0 0 0-.352.396c-.08.149-.12.315-.12.498 0 .229.04.421.12.576.086.155.209.292.369.412.161.121.356.23.585.327.229.097.49.203.782.318.389.149.739.304 1.048.464.31.155.573.332.791.533.218.195.384.421.498.679.121.258.181.564.181.919 0 .436-.098.814-.292 1.135a2.42 2.42 0 0 1-.765.799 3.55 3.55 0 0 1-1.109.473 5.476 5.476 0 0 1-1.315.154c-.905 0-1.69-.174-2.354-.524Zm8.432-10.716a.894.894 0 0 1-.911-.911.87.87 0 0 1 .266-.653.879.879 0 0 1 .645-.267c.257 0 .475.089.653.267a.856.856 0 0 1 .275.653.864.864 0 0 1-.275.644.889.889 0 0 1-.653.267Zm.687 11.034h-1.409v-8.8h1.409v8.8Zm6.636-.086c-.332.183-.77.275-1.315.275-1.541 0-2.311-.859-2.311-2.578v-5.208h-1.513V214.2h1.513v-2.148l1.409-.456v2.604h2.217v1.203h-2.217v4.959c0 .59.1 1.011.301 1.263.2.252.533.378.997.378.355 0 .661-.097.919-.292v1.203Zm5.261.292c-1.3 0-2.34-.409-3.119-1.229-.774-.825-1.161-1.916-1.161-3.274 0-1.478.404-2.632 1.212-3.463.808-.831 1.899-1.246 3.274-1.246 1.312 0 2.335.404 3.068 1.211.739.808 1.109 1.928 1.109 3.361 0 1.403-.398 2.529-1.195 3.377-.79.842-1.853 1.263-3.188 1.263Zm.103-8.026c-.905 0-1.621.309-2.148.928-.527.613-.791 1.461-.791 2.544 0 1.042.267 1.864.799 2.466.533.602 1.246.902 2.14.902.911 0 1.61-.295 2.097-.885.493-.59.739-1.429.739-2.518 0-1.1-.246-1.948-.739-2.544-.487-.595-1.186-.893-2.097-.893Zm10.821.447c-.246-.19-.601-.284-1.065-.284-.602 0-1.106.284-1.513.851-.401.567-.601 1.34-.601 2.32V223h-1.41v-8.8h1.41v1.813h.034c.201-.618.507-1.1.92-1.443.412-.35.873-.525 1.383-.525.367 0 .648.04.842.121v1.461Zm8.235-1.427-4.048 10.209c-.722 1.822-1.736 2.733-3.042 2.733a3.21 3.21 0 0 1-.92-.112v-1.263c.304.103.582.155.834.155.71 0 1.243-.424 1.598-1.272l.705-1.667-3.437-8.783h1.564l2.38 6.772c.029.086.089.309.181.67h.051c.029-.137.086-.355.172-.653l2.501-6.789h1.461Z" fill="#333"/></svg>